<?xml version="1.0" encoding="UTF-8" standalone="no"?>
<!-- Uploaded to: SVG Repo, www.svgrepo.com, Generator: SVG Repo Mixer Tools -->

<svg
   width="800px"
   height="800px"
   viewBox="0 0 24 24"
   fill="none"
   version="1.1"
   id="svg1"
   sodipodi:docname="folder-svgrepo-com.svg"
   inkscape:version="1.4.2 (ebf0e940d0, 2025-05-08)"
   xmlns:inkscape="http://www.inkscape.org/namespaces/inkscape"
   xmlns:sodipodi="http://sodipodi.sourceforge.net/DTD/sodipodi-0.dtd"
   xmlns="http://www.w3.org/2000/svg"
   xmlns:svg="http://www.w3.org/2000/svg">
  <defs
     id="defs1" />
  <sodipodi:namedview
     id="namedview1"
     pagecolor="#ffffff"
     bordercolor="#000000"
     borderopacity="0.25"
     inkscape:showpageshadow="2"
     inkscape:pageopacity="0.0"
     inkscape:pagecheckerboard="0"
     inkscape:deskcolor="#d1d1d1"
     inkscape:zoom="0.62125"
     inkscape:cx="400"
     inkscape:cy="400"
     inkscape:window-width="1079"
     inkscape:window-height="1014"
     inkscape:window-x="26"
     inkscape:window-y="23"
     inkscape:window-maximized="0"
     inkscape:current-layer="svg1" />
  <path
     fill-rule="evenodd"
     clip-rule="evenodd"
     d="M2.06935 5.25839C2 5.62595 2 6.06722 2 6.94975V14C2 17.7712 2 19.6569 3.17157 20.8284C4.34315 22 6.22876 22 10 22H14C17.7712 22 19.6569 22 20.8284 20.8284C22 19.6569 22 17.7712 22 14V11.7979C22 9.16554 22 7.84935 21.2305 6.99383C21.1598 6.91514 21.0849 6.84024 21.0062 6.76946C20.1506 6 18.8345 6 16.2021 6H15.8284C14.6747 6 14.0979 6 13.5604 5.84678C13.2651 5.7626 12.9804 5.64471 12.7121 5.49543C12.2237 5.22367 11.8158 4.81578 11 4L10.4497 3.44975C10.1763 3.17633 10.0396 3.03961 9.89594 2.92051C9.27652 2.40704 8.51665 2.09229 7.71557 2.01738C7.52976 2 7.33642 2 6.94975 2C6.06722 2 5.62595 2 5.25839 2.06935C3.64031 2.37464 2.37464 3.64031 2.06935 5.25839ZM12.25 10C12.25 9.58579 12.5858 9.25 13 9.25H18C18.4142 9.25 18.75 9.58579 18.75 10C18.75 10.4142 18.4142 10.75 18 10.75H13C12.5858 10.75 12.25 10.4142 12.25 10Z"
     fill="#1C274C"
     id="path1"
     style="fill:#177daf;fill-opacity:1" />
</svg>
