<?xml version="1.0" encoding="UTF-8" standalone="no"?>
<!-- Uploaded to: SVG Repo, www.svgrepo.com, Generator: SVG Repo Mixer Tools -->

<svg
   width="800px"
   height="800px"
   viewBox="0 0 24 24"
   fill="none"
   version="1.1"
   id="svg2"
   sodipodi:docname="warning-1-svgrepo-com.svg"
   inkscape:version="1.4.2 (ebf0e940d0, 2025-05-08)"
   xmlns:inkscape="http://www.inkscape.org/namespaces/inkscape"
   xmlns:sodipodi="http://sodipodi.sourceforge.net/DTD/sodipodi-0.dtd"
   xmlns="http://www.w3.org/2000/svg"
   xmlns:svg="http://www.w3.org/2000/svg">
  <defs
     id="defs2" />
  <sodipodi:namedview
     id="namedview2"
     pagecolor="#ffffff"
     bordercolor="#000000"
     borderopacity="0.25"
     inkscape:showpageshadow="2"
     inkscape:pageopacity="0.0"
     inkscape:pagecheckerboard="0"
     inkscape:deskcolor="#d1d1d1"
     inkscape:zoom="0.310625"
     inkscape:cx="608.4507"
     inkscape:cy="771.02615"
     inkscape:window-width="1168"
     inkscape:window-height="1014"
     inkscape:window-x="26"
     inkscape:window-y="23"
     inkscape:window-maximized="0"
     inkscape:current-layer="svg2" />
  <path
     d="m 12.002344,4.4731055 c -0.605909,0.00152 -0.887813,0.5207226 -0.887813,0.5207226 L 4.5151172,18.229395 c 0,0 -0.4684569,0.65283 -0.1847461,1.182832 0.3540821,0.661461 0.9754687,0.585761 0.9754687,0.585761 l 13.5256642,-0.0055 c 0,0 0.53542,0.0021 0.802441,-0.495117 0.256149,-0.476923 0.05121,-0.879258 0.05121,-0.879258 L 12.924258,5.0877539 c 0,0 -0.235909,-0.6163684 -0.921914,-0.6146484 z m 0.0052,4.5072656 c 0.836772,-0.00172 1.002129,0.7170703 1.002129,0.7170703 l 0.06826,4.3365816 c 0,0 -0.147147,0.973675 -0.990235,0.990235 C 11.115524,15.043358 10.995,14.136445 10.995,14.136445 l 0.03416,-4.4390036 c 0,0 0.266682,-0.7156003 0.97834,-0.7170703 z m -0.01371,6.5133989 c 0.718256,0.01338 1.509497,0.826713 1.502402,1.545058 -0.0069,0.700178 -0.793716,1.487546 -1.493847,1.476856 -0.730522,-0.01115 -1.528504,-0.857436 -1.510957,-1.587832 0.01663,-0.69214 0.810182,-1.446978 1.502402,-1.434082 z"
     style="display:inline;fill:#1e1e1e;stroke-width:0.510493"
     id="path8" />
  <path
     d="M 0,0 V 24.585117 H 24.175371 V 0 Z m 12.036211,2.4506836 c 1.777852,0.020873 2.583516,1.5815039 2.583516,1.5815039 l 6.700195,13.3521095 c 0,0 0.933914,1.640172 0.05707,3.082969 -0.857201,1.410476 -2.387051,1.528711 -2.387051,1.528711 l -13.7384176,0.01207 c 0,0 -1.4157289,0.145763 -2.4869531,-1.303828 C 1.7238049,19.295846 2.5835156,17.625762 2.5835156,17.625762 L 9.3440625,4.0321875 c 0,0 0.7806705,-1.6039459 2.6921485,-1.5815039 z"
     style="display:inline;fill:#1e1e1e;stroke-width:0.510493"
     id="path7" />
</svg>
